<?xml version="1.0" encoding="UTF-8"?>
<svg id="Layer_1" data-name="Layer 1" xmlns="http://www.w3.org/2000/svg" viewBox="0 0 1920 1080">
  <defs>
    <style>
      .cls-1 {
        fill: #231f20;
      }
    </style>
  </defs>
  <polygon class="cls-1" points="1659.69 272.59 1659.69 416.5 1523.4 416.5 1523.4 272.59 1420.67 272.59 1420.67 651.45 1523.4 651.45 1523.4 499.4 1659.69 499.4 1659.69 651.45 1762.42 651.45 1762.42 272.59 1659.69 272.59"/>
  <path class="cls-1" d="M885.6,651.45h114.93l-122.81-378.87h-144.94l-122.81,378.87h114.93l20.84-72.72h119.01l20.84,72.72ZM767.76,501.94l37.49-130.81,37.49,130.81h-74.99Z"/>
  <polygon class="cls-1" points="1265.78 272.59 1265.77 272.59 1265.77 484.49 1131.52 272.59 1125.42 272.59 1019.64 272.59 1019.64 651.45 1125.42 651.45 1125.42 513.13 1125.42 439.55 1259.67 651.45 1265.77 651.45 1371.55 651.45 1371.55 272.59 1265.78 272.59"/>
  <g>
    <polygon class="cls-1" points="496.12 482.21 605.58 651.45 477.45 651.45 432.05 581.26 367.97 482.2 432.05 383.14 503.6 272.52 631.75 272.52 496.12 482.21"/>
    <path class="cls-1" d="M351.06,538.81l44.38,68.61-118.7,183.52h-88.76l163.08-252.13M351.06,508.36l-193.47,299.12h128.14l129.4-200.05-64.07-99.06h0Z"/>
    <polygon class="cls-1" points="415.13 356.99 351.06 456.05 246.8 294.87 374.94 294.87 415.13 356.99"/>
  </g>
</svg>